<mxfile host="app.diagrams.net" agent="Mozilla/5.0 (Windows NT 10.0; Win64; x64) AppleWebKit/537.36 (KHTML, like Gecko) Chrome/131.0.0.0 Safari/537.36" version="25.0.3">
  <diagram name="StrÃ¡nka-1" id="OFlJJj9IJB6V51EGAcn_">
    <mxGraphModel dx="558" dy="927" grid="1" gridSize="10" guides="1" tooltips="1" connect="1" arrows="1" fold="1" page="1" pageScale="1" pageWidth="827" pageHeight="1169" math="0" shadow="0">
      <root>
        <mxCell id="0" />
        <mxCell id="1" parent="0" />
        <mxCell id="SmGAMTmKKkEDDtvhA5Ul-1" value="Dungeon" style="swimlane;fontStyle=0;childLayout=stackLayout;horizontal=1;startSize=26;fillColor=none;horizontalStack=0;resizeParent=1;resizeParentMax=0;resizeLast=0;collapsible=1;marginBottom=0;whiteSpace=wrap;html=1;" vertex="1" parent="1">
          <mxGeometry x="180" y="90" width="140" height="182" as="geometry" />
        </mxCell>
        <mxCell id="SmGAMTmKKkEDDtvhA5Ul-2" value="PK IdDungeon" style="text;strokeColor=none;fillColor=none;align=left;verticalAlign=top;spacingLeft=4;spacingRight=4;overflow=hidden;rotatable=0;points=[[0,0.5],[1,0.5]];portConstraint=eastwest;whiteSpace=wrap;html=1;" vertex="1" parent="SmGAMTmKKkEDDtvhA5Ul-1">
          <mxGeometry y="26" width="140" height="26" as="geometry" />
        </mxCell>
        <mxCell id="SmGAMTmKKkEDDtvhA5Ul-3" value="&amp;nbsp; &amp;nbsp; &amp;nbsp; Name" style="text;strokeColor=none;fillColor=none;align=left;verticalAlign=top;spacingLeft=4;spacingRight=4;overflow=hidden;rotatable=0;points=[[0,0.5],[1,0.5]];portConstraint=eastwest;whiteSpace=wrap;html=1;" vertex="1" parent="SmGAMTmKKkEDDtvhA5Ul-1">
          <mxGeometry y="52" width="140" height="26" as="geometry" />
        </mxCell>
        <mxCell id="SmGAMTmKKkEDDtvhA5Ul-5" value="&amp;nbsp; &amp;nbsp; &amp;nbsp; MaxRooms" style="text;strokeColor=none;fillColor=none;align=left;verticalAlign=top;spacingLeft=4;spacingRight=4;overflow=hidden;rotatable=0;points=[[0,0.5],[1,0.5]];portConstraint=eastwest;whiteSpace=wrap;html=1;" vertex="1" parent="SmGAMTmKKkEDDtvhA5Ul-1">
          <mxGeometry y="78" width="140" height="26" as="geometry" />
        </mxCell>
        <mxCell id="SmGAMTmKKkEDDtvhA5Ul-6" value="&amp;nbsp; &amp;nbsp; &amp;nbsp; Description" style="text;strokeColor=none;fillColor=none;align=left;verticalAlign=top;spacingLeft=4;spacingRight=4;overflow=hidden;rotatable=0;points=[[0,0.5],[1,0.5]];portConstraint=eastwest;whiteSpace=wrap;html=1;" vertex="1" parent="SmGAMTmKKkEDDtvhA5Ul-1">
          <mxGeometry y="104" width="140" height="26" as="geometry" />
        </mxCell>
        <mxCell id="SmGAMTmKKkEDDtvhA5Ul-14" value="&amp;nbsp; &amp;nbsp; &amp;nbsp; Reward" style="text;strokeColor=none;fillColor=none;align=left;verticalAlign=top;spacingLeft=4;spacingRight=4;overflow=hidden;rotatable=0;points=[[0,0.5],[1,0.5]];portConstraint=eastwest;whiteSpace=wrap;html=1;" vertex="1" parent="SmGAMTmKKkEDDtvhA5Ul-1">
          <mxGeometry y="130" width="140" height="26" as="geometry" />
        </mxCell>
        <mxCell id="SmGAMTmKKkEDDtvhA5Ul-15" value="&amp;nbsp; &amp;nbsp; &amp;nbsp; DmgCondition" style="text;strokeColor=none;fillColor=none;align=left;verticalAlign=top;spacingLeft=4;spacingRight=4;overflow=hidden;rotatable=0;points=[[0,0.5],[1,0.5]];portConstraint=eastwest;whiteSpace=wrap;html=1;" vertex="1" parent="SmGAMTmKKkEDDtvhA5Ul-1">
          <mxGeometry y="156" width="140" height="26" as="geometry" />
        </mxCell>
        <mxCell id="SmGAMTmKKkEDDtvhA5Ul-7" value="Room" style="swimlane;fontStyle=0;childLayout=stackLayout;horizontal=1;startSize=26;fillColor=none;horizontalStack=0;resizeParent=1;resizeParentMax=0;resizeLast=0;collapsible=1;marginBottom=0;whiteSpace=wrap;html=1;" vertex="1" parent="1">
          <mxGeometry x="180" y="410" width="140" height="156" as="geometry" />
        </mxCell>
        <mxCell id="SmGAMTmKKkEDDtvhA5Ul-8" value="PK IdRoom" style="text;strokeColor=none;fillColor=none;align=left;verticalAlign=top;spacingLeft=4;spacingRight=4;overflow=hidden;rotatable=0;points=[[0,0.5],[1,0.5]];portConstraint=eastwest;whiteSpace=wrap;html=1;" vertex="1" parent="SmGAMTmKKkEDDtvhA5Ul-7">
          <mxGeometry y="26" width="140" height="26" as="geometry" />
        </mxCell>
        <mxCell id="SmGAMTmKKkEDDtvhA5Ul-9" value="&amp;nbsp; &amp;nbsp; &amp;nbsp; Type" style="text;strokeColor=none;fillColor=none;align=left;verticalAlign=top;spacingLeft=4;spacingRight=4;overflow=hidden;rotatable=0;points=[[0,0.5],[1,0.5]];portConstraint=eastwest;whiteSpace=wrap;html=1;" vertex="1" parent="SmGAMTmKKkEDDtvhA5Ul-7">
          <mxGeometry y="52" width="140" height="26" as="geometry" />
        </mxCell>
        <mxCell id="SmGAMTmKKkEDDtvhA5Ul-10" value="&amp;nbsp; &amp;nbsp; &amp;nbsp; Image" style="text;strokeColor=none;fillColor=none;align=left;verticalAlign=top;spacingLeft=4;spacingRight=4;overflow=hidden;rotatable=0;points=[[0,0.5],[1,0.5]];portConstraint=eastwest;whiteSpace=wrap;html=1;" vertex="1" parent="SmGAMTmKKkEDDtvhA5Ul-7">
          <mxGeometry y="78" width="140" height="26" as="geometry" />
        </mxCell>
        <mxCell id="SmGAMTmKKkEDDtvhA5Ul-11" value="&amp;nbsp; &amp;nbsp; &amp;nbsp; Description" style="text;strokeColor=none;fillColor=none;align=left;verticalAlign=top;spacingLeft=4;spacingRight=4;overflow=hidden;rotatable=0;points=[[0,0.5],[1,0.5]];portConstraint=eastwest;whiteSpace=wrap;html=1;" vertex="1" parent="SmGAMTmKKkEDDtvhA5Ul-7">
          <mxGeometry y="104" width="140" height="26" as="geometry" />
        </mxCell>
        <mxCell id="SmGAMTmKKkEDDtvhA5Ul-13" value="FK IdDungeon" style="text;strokeColor=none;fillColor=none;align=left;verticalAlign=top;spacingLeft=4;spacingRight=4;overflow=hidden;rotatable=0;points=[[0,0.5],[1,0.5]];portConstraint=eastwest;whiteSpace=wrap;html=1;" vertex="1" parent="SmGAMTmKKkEDDtvhA5Ul-7">
          <mxGeometry y="130" width="140" height="26" as="geometry" />
        </mxCell>
        <mxCell id="SmGAMTmKKkEDDtvhA5Ul-16" value="" style="endArrow=none;html=1;rounded=0;" edge="1" parent="1" source="SmGAMTmKKkEDDtvhA5Ul-7" target="SmGAMTmKKkEDDtvhA5Ul-1">
          <mxGeometry width="50" height="50" relative="1" as="geometry">
            <mxPoint x="220" y="360" as="sourcePoint" />
            <mxPoint x="270" y="310" as="targetPoint" />
          </mxGeometry>
        </mxCell>
        <mxCell id="SmGAMTmKKkEDDtvhA5Ul-17" value="1" style="text;html=1;align=center;verticalAlign=middle;whiteSpace=wrap;rounded=0;" vertex="1" parent="1">
          <mxGeometry x="240" y="272" width="60" height="30" as="geometry" />
        </mxCell>
        <mxCell id="SmGAMTmKKkEDDtvhA5Ul-18" value="1..MaxRooms" style="text;html=1;align=center;verticalAlign=middle;whiteSpace=wrap;rounded=0;" vertex="1" parent="1">
          <mxGeometry x="260" y="380" width="60" height="30" as="geometry" />
        </mxCell>
        <mxCell id="SmGAMTmKKkEDDtvhA5Ul-19" value="Monster" style="swimlane;fontStyle=0;childLayout=stackLayout;horizontal=1;startSize=26;fillColor=none;horizontalStack=0;resizeParent=1;resizeParentMax=0;resizeLast=0;collapsible=1;marginBottom=0;whiteSpace=wrap;html=1;" vertex="1" parent="1">
          <mxGeometry x="600" y="397" width="140" height="182" as="geometry" />
        </mxCell>
        <mxCell id="SmGAMTmKKkEDDtvhA5Ul-20" value="PK IdMonster" style="text;strokeColor=none;fillColor=none;align=left;verticalAlign=top;spacingLeft=4;spacingRight=4;overflow=hidden;rotatable=0;points=[[0,0.5],[1,0.5]];portConstraint=eastwest;whiteSpace=wrap;html=1;" vertex="1" parent="SmGAMTmKKkEDDtvhA5Ul-19">
          <mxGeometry y="26" width="140" height="26" as="geometry" />
        </mxCell>
        <mxCell id="SmGAMTmKKkEDDtvhA5Ul-21" value="&amp;nbsp; &amp;nbsp; &amp;nbsp; Name" style="text;strokeColor=none;fillColor=none;align=left;verticalAlign=top;spacingLeft=4;spacingRight=4;overflow=hidden;rotatable=0;points=[[0,0.5],[1,0.5]];portConstraint=eastwest;whiteSpace=wrap;html=1;" vertex="1" parent="SmGAMTmKKkEDDtvhA5Ul-19">
          <mxGeometry y="52" width="140" height="26" as="geometry" />
        </mxCell>
        <mxCell id="SmGAMTmKKkEDDtvhA5Ul-22" value="&amp;nbsp; &amp;nbsp; &amp;nbsp; Hitpoints" style="text;strokeColor=none;fillColor=none;align=left;verticalAlign=top;spacingLeft=4;spacingRight=4;overflow=hidden;rotatable=0;points=[[0,0.5],[1,0.5]];portConstraint=eastwest;whiteSpace=wrap;html=1;" vertex="1" parent="SmGAMTmKKkEDDtvhA5Ul-19">
          <mxGeometry y="78" width="140" height="26" as="geometry" />
        </mxCell>
        <mxCell id="SmGAMTmKKkEDDtvhA5Ul-25" value="&amp;nbsp; &amp;nbsp; &amp;nbsp; Damage" style="text;strokeColor=none;fillColor=none;align=left;verticalAlign=top;spacingLeft=4;spacingRight=4;overflow=hidden;rotatable=0;points=[[0,0.5],[1,0.5]];portConstraint=eastwest;whiteSpace=wrap;html=1;" vertex="1" parent="SmGAMTmKKkEDDtvhA5Ul-19">
          <mxGeometry y="104" width="140" height="26" as="geometry" />
        </mxCell>
        <mxCell id="SmGAMTmKKkEDDtvhA5Ul-23" value="&amp;nbsp; &amp;nbsp; &amp;nbsp; Image" style="text;strokeColor=none;fillColor=none;align=left;verticalAlign=top;spacingLeft=4;spacingRight=4;overflow=hidden;rotatable=0;points=[[0,0.5],[1,0.5]];portConstraint=eastwest;whiteSpace=wrap;html=1;" vertex="1" parent="SmGAMTmKKkEDDtvhA5Ul-19">
          <mxGeometry y="130" width="140" height="26" as="geometry" />
        </mxCell>
        <mxCell id="SmGAMTmKKkEDDtvhA5Ul-24" value="FK IdRoom" style="text;strokeColor=none;fillColor=none;align=left;verticalAlign=top;spacingLeft=4;spacingRight=4;overflow=hidden;rotatable=0;points=[[0,0.5],[1,0.5]];portConstraint=eastwest;whiteSpace=wrap;html=1;" vertex="1" parent="SmGAMTmKKkEDDtvhA5Ul-19">
          <mxGeometry y="156" width="140" height="26" as="geometry" />
        </mxCell>
        <mxCell id="SmGAMTmKKkEDDtvhA5Ul-26" value="" style="endArrow=none;html=1;rounded=0;" edge="1" parent="1" source="SmGAMTmKKkEDDtvhA5Ul-7" target="SmGAMTmKKkEDDtvhA5Ul-19">
          <mxGeometry width="50" height="50" relative="1" as="geometry">
            <mxPoint x="450" y="510" as="sourcePoint" />
            <mxPoint x="500" y="460" as="targetPoint" />
          </mxGeometry>
        </mxCell>
        <mxCell id="SmGAMTmKKkEDDtvhA5Ul-27" value="1" style="text;html=1;align=center;verticalAlign=middle;whiteSpace=wrap;rounded=0;" vertex="1" parent="1">
          <mxGeometry x="300" y="460" width="60" height="30" as="geometry" />
        </mxCell>
        <mxCell id="SmGAMTmKKkEDDtvhA5Ul-28" value="0..1" style="text;html=1;align=center;verticalAlign=middle;whiteSpace=wrap;rounded=0;" vertex="1" parent="1">
          <mxGeometry x="550" y="460" width="60" height="30" as="geometry" />
        </mxCell>
        <mxCell id="SmGAMTmKKkEDDtvhA5Ul-29" value="Quest" style="swimlane;fontStyle=0;childLayout=stackLayout;horizontal=1;startSize=26;fillColor=none;horizontalStack=0;resizeParent=1;resizeParentMax=0;resizeLast=0;collapsible=1;marginBottom=0;whiteSpace=wrap;html=1;" vertex="1" parent="1">
          <mxGeometry x="500" y="103" width="140" height="156" as="geometry" />
        </mxCell>
        <mxCell id="SmGAMTmKKkEDDtvhA5Ul-30" value="PK IdQuest" style="text;strokeColor=none;fillColor=none;align=left;verticalAlign=top;spacingLeft=4;spacingRight=4;overflow=hidden;rotatable=0;points=[[0,0.5],[1,0.5]];portConstraint=eastwest;whiteSpace=wrap;html=1;" vertex="1" parent="SmGAMTmKKkEDDtvhA5Ul-29">
          <mxGeometry y="26" width="140" height="26" as="geometry" />
        </mxCell>
        <mxCell id="SmGAMTmKKkEDDtvhA5Ul-32" value="&amp;nbsp; &amp;nbsp; &amp;nbsp; Description" style="text;strokeColor=none;fillColor=none;align=left;verticalAlign=top;spacingLeft=4;spacingRight=4;overflow=hidden;rotatable=0;points=[[0,0.5],[1,0.5]];portConstraint=eastwest;whiteSpace=wrap;html=1;" vertex="1" parent="SmGAMTmKKkEDDtvhA5Ul-29">
          <mxGeometry y="52" width="140" height="26" as="geometry" />
        </mxCell>
        <mxCell id="SmGAMTmKKkEDDtvhA5Ul-33" value="&amp;nbsp; &amp;nbsp; &amp;nbsp; QuestCondition" style="text;strokeColor=none;fillColor=none;align=left;verticalAlign=top;spacingLeft=4;spacingRight=4;overflow=hidden;rotatable=0;points=[[0,0.5],[1,0.5]];portConstraint=eastwest;whiteSpace=wrap;html=1;" vertex="1" parent="SmGAMTmKKkEDDtvhA5Ul-29">
          <mxGeometry y="78" width="140" height="26" as="geometry" />
        </mxCell>
        <mxCell id="SmGAMTmKKkEDDtvhA5Ul-45" value="&amp;nbsp; &amp;nbsp; &amp;nbsp; QuestParametr" style="text;strokeColor=none;fillColor=none;align=left;verticalAlign=top;spacingLeft=4;spacingRight=4;overflow=hidden;rotatable=0;points=[[0,0.5],[1,0.5]];portConstraint=eastwest;whiteSpace=wrap;html=1;" vertex="1" parent="SmGAMTmKKkEDDtvhA5Ul-29">
          <mxGeometry y="104" width="140" height="26" as="geometry" />
        </mxCell>
        <mxCell id="SmGAMTmKKkEDDtvhA5Ul-34" value="FK IdDungeon" style="text;strokeColor=none;fillColor=none;align=left;verticalAlign=top;spacingLeft=4;spacingRight=4;overflow=hidden;rotatable=0;points=[[0,0.5],[1,0.5]];portConstraint=eastwest;whiteSpace=wrap;html=1;" vertex="1" parent="SmGAMTmKKkEDDtvhA5Ul-29">
          <mxGeometry y="130" width="140" height="26" as="geometry" />
        </mxCell>
        <mxCell id="SmGAMTmKKkEDDtvhA5Ul-35" value="" style="endArrow=none;html=1;rounded=0;" edge="1" parent="1" source="SmGAMTmKKkEDDtvhA5Ul-1" target="SmGAMTmKKkEDDtvhA5Ul-29">
          <mxGeometry width="50" height="50" relative="1" as="geometry">
            <mxPoint x="370" y="150" as="sourcePoint" />
            <mxPoint x="420" y="100" as="targetPoint" />
          </mxGeometry>
        </mxCell>
        <mxCell id="SmGAMTmKKkEDDtvhA5Ul-36" value="1" style="text;html=1;align=center;verticalAlign=middle;whiteSpace=wrap;rounded=0;" vertex="1" parent="1">
          <mxGeometry x="300" y="150" width="60" height="30" as="geometry" />
        </mxCell>
        <mxCell id="SmGAMTmKKkEDDtvhA5Ul-37" value="1..*" style="text;html=1;align=center;verticalAlign=middle;whiteSpace=wrap;rounded=0;" vertex="1" parent="1">
          <mxGeometry x="450" y="150" width="60" height="30" as="geometry" />
        </mxCell>
        <mxCell id="SmGAMTmKKkEDDtvhA5Ul-38" value="Item" style="swimlane;fontStyle=0;childLayout=stackLayout;horizontal=1;startSize=26;fillColor=none;horizontalStack=0;resizeParent=1;resizeParentMax=0;resizeLast=0;collapsible=1;marginBottom=0;whiteSpace=wrap;html=1;" vertex="1" parent="1">
          <mxGeometry x="180" y="770" width="140" height="260" as="geometry" />
        </mxCell>
        <mxCell id="SmGAMTmKKkEDDtvhA5Ul-39" value="PK IdItem" style="text;strokeColor=none;fillColor=none;align=left;verticalAlign=top;spacingLeft=4;spacingRight=4;overflow=hidden;rotatable=0;points=[[0,0.5],[1,0.5]];portConstraint=eastwest;whiteSpace=wrap;html=1;" vertex="1" parent="SmGAMTmKKkEDDtvhA5Ul-38">
          <mxGeometry y="26" width="140" height="26" as="geometry" />
        </mxCell>
        <mxCell id="SmGAMTmKKkEDDtvhA5Ul-40" value="&amp;nbsp; &amp;nbsp; &amp;nbsp; Name" style="text;strokeColor=none;fillColor=none;align=left;verticalAlign=top;spacingLeft=4;spacingRight=4;overflow=hidden;rotatable=0;points=[[0,0.5],[1,0.5]];portConstraint=eastwest;whiteSpace=wrap;html=1;" vertex="1" parent="SmGAMTmKKkEDDtvhA5Ul-38">
          <mxGeometry y="52" width="140" height="26" as="geometry" />
        </mxCell>
        <mxCell id="SmGAMTmKKkEDDtvhA5Ul-41" value="&amp;nbsp; &amp;nbsp; &amp;nbsp; Type" style="text;strokeColor=none;fillColor=none;align=left;verticalAlign=top;spacingLeft=4;spacingRight=4;overflow=hidden;rotatable=0;points=[[0,0.5],[1,0.5]];portConstraint=eastwest;whiteSpace=wrap;html=1;" vertex="1" parent="SmGAMTmKKkEDDtvhA5Ul-38">
          <mxGeometry y="78" width="140" height="26" as="geometry" />
        </mxCell>
        <mxCell id="SmGAMTmKKkEDDtvhA5Ul-42" value="&amp;nbsp; &amp;nbsp; &amp;nbsp; Image" style="text;strokeColor=none;fillColor=none;align=left;verticalAlign=top;spacingLeft=4;spacingRight=4;overflow=hidden;rotatable=0;points=[[0,0.5],[1,0.5]];portConstraint=eastwest;whiteSpace=wrap;html=1;" vertex="1" parent="SmGAMTmKKkEDDtvhA5Ul-38">
          <mxGeometry y="104" width="140" height="26" as="geometry" />
        </mxCell>
        <mxCell id="SmGAMTmKKkEDDtvhA5Ul-46" value="&amp;nbsp; &amp;nbsp; &amp;nbsp; BaseStat" style="text;strokeColor=none;fillColor=none;align=left;verticalAlign=top;spacingLeft=4;spacingRight=4;overflow=hidden;rotatable=0;points=[[0,0.5],[1,0.5]];portConstraint=eastwest;whiteSpace=wrap;html=1;" vertex="1" parent="SmGAMTmKKkEDDtvhA5Ul-38">
          <mxGeometry y="130" width="140" height="26" as="geometry" />
        </mxCell>
        <mxCell id="SmGAMTmKKkEDDtvhA5Ul-44" value="&amp;nbsp; &amp;nbsp; &amp;nbsp; BasePrice" style="text;strokeColor=none;fillColor=none;align=left;verticalAlign=top;spacingLeft=4;spacingRight=4;overflow=hidden;rotatable=0;points=[[0,0.5],[1,0.5]];portConstraint=eastwest;whiteSpace=wrap;html=1;" vertex="1" parent="SmGAMTmKKkEDDtvhA5Ul-38">
          <mxGeometry y="156" width="140" height="26" as="geometry" />
        </mxCell>
        <mxCell id="SmGAMTmKKkEDDtvhA5Ul-47" value="&amp;nbsp; &amp;nbsp; &amp;nbsp; SpecEffect" style="text;strokeColor=none;fillColor=none;align=left;verticalAlign=top;spacingLeft=4;spacingRight=4;overflow=hidden;rotatable=0;points=[[0,0.5],[1,0.5]];portConstraint=eastwest;whiteSpace=wrap;html=1;" vertex="1" parent="SmGAMTmKKkEDDtvhA5Ul-38">
          <mxGeometry y="182" width="140" height="26" as="geometry" />
        </mxCell>
        <mxCell id="SmGAMTmKKkEDDtvhA5Ul-48" value="&amp;nbsp; &amp;nbsp; &amp;nbsp; SpecEffectStat" style="text;strokeColor=none;fillColor=none;align=left;verticalAlign=top;spacingLeft=4;spacingRight=4;overflow=hidden;rotatable=0;points=[[0,0.5],[1,0.5]];portConstraint=eastwest;whiteSpace=wrap;html=1;" vertex="1" parent="SmGAMTmKKkEDDtvhA5Ul-38">
          <mxGeometry y="208" width="140" height="26" as="geometry" />
        </mxCell>
        <mxCell id="SmGAMTmKKkEDDtvhA5Ul-43" value="FK IdRoom" style="text;strokeColor=none;fillColor=none;align=left;verticalAlign=top;spacingLeft=4;spacingRight=4;overflow=hidden;rotatable=0;points=[[0,0.5],[1,0.5]];portConstraint=eastwest;whiteSpace=wrap;html=1;" vertex="1" parent="SmGAMTmKKkEDDtvhA5Ul-38">
          <mxGeometry y="234" width="140" height="26" as="geometry" />
        </mxCell>
        <mxCell id="SmGAMTmKKkEDDtvhA5Ul-57" value="" style="endArrow=none;html=1;rounded=0;" edge="1" parent="1" source="SmGAMTmKKkEDDtvhA5Ul-38" target="SmGAMTmKKkEDDtvhA5Ul-7">
          <mxGeometry width="50" height="50" relative="1" as="geometry">
            <mxPoint x="230" y="670" as="sourcePoint" />
            <mxPoint x="280" y="620" as="targetPoint" />
          </mxGeometry>
        </mxCell>
        <mxCell id="SmGAMTmKKkEDDtvhA5Ul-59" value="1" style="text;html=1;align=center;verticalAlign=middle;whiteSpace=wrap;rounded=0;" vertex="1" parent="1">
          <mxGeometry x="250" y="566" width="60" height="30" as="geometry" />
        </mxCell>
        <mxCell id="SmGAMTmKKkEDDtvhA5Ul-60" value="0..1" style="text;html=1;align=center;verticalAlign=middle;whiteSpace=wrap;rounded=0;" vertex="1" parent="1">
          <mxGeometry x="240" y="740" width="60" height="30" as="geometry" />
        </mxCell>
        <mxCell id="SmGAMTmKKkEDDtvhA5Ul-63" value="r" style="swimlane;fontStyle=0;childLayout=stackLayout;horizontal=1;startSize=26;fillColor=none;horizontalStack=0;resizeParent=1;resizeParentMax=0;resizeLast=0;collapsible=1;marginBottom=0;whiteSpace=wrap;html=1;" vertex="1" parent="1">
          <mxGeometry x="480" y="596" width="140" height="182" as="geometry" />
        </mxCell>
        <mxCell id="SmGAMTmKKkEDDtvhA5Ul-64" value="PK IdMonster" style="text;strokeColor=none;fillColor=none;align=left;verticalAlign=top;spacingLeft=4;spacingRight=4;overflow=hidden;rotatable=0;points=[[0,0.5],[1,0.5]];portConstraint=eastwest;whiteSpace=wrap;html=1;" vertex="1" parent="SmGAMTmKKkEDDtvhA5Ul-63">
          <mxGeometry y="26" width="140" height="26" as="geometry" />
        </mxCell>
        <mxCell id="SmGAMTmKKkEDDtvhA5Ul-65" value="&amp;nbsp; &amp;nbsp; &amp;nbsp; Name" style="text;strokeColor=none;fillColor=none;align=left;verticalAlign=top;spacingLeft=4;spacingRight=4;overflow=hidden;rotatable=0;points=[[0,0.5],[1,0.5]];portConstraint=eastwest;whiteSpace=wrap;html=1;" vertex="1" parent="SmGAMTmKKkEDDtvhA5Ul-63">
          <mxGeometry y="52" width="140" height="26" as="geometry" />
        </mxCell>
        <mxCell id="SmGAMTmKKkEDDtvhA5Ul-66" value="&amp;nbsp; &amp;nbsp; &amp;nbsp; Hitpoints" style="text;strokeColor=none;fillColor=none;align=left;verticalAlign=top;spacingLeft=4;spacingRight=4;overflow=hidden;rotatable=0;points=[[0,0.5],[1,0.5]];portConstraint=eastwest;whiteSpace=wrap;html=1;" vertex="1" parent="SmGAMTmKKkEDDtvhA5Ul-63">
          <mxGeometry y="78" width="140" height="26" as="geometry" />
        </mxCell>
        <mxCell id="SmGAMTmKKkEDDtvhA5Ul-67" value="&amp;nbsp; &amp;nbsp; &amp;nbsp; Damage" style="text;strokeColor=none;fillColor=none;align=left;verticalAlign=top;spacingLeft=4;spacingRight=4;overflow=hidden;rotatable=0;points=[[0,0.5],[1,0.5]];portConstraint=eastwest;whiteSpace=wrap;html=1;" vertex="1" parent="SmGAMTmKKkEDDtvhA5Ul-63">
          <mxGeometry y="104" width="140" height="26" as="geometry" />
        </mxCell>
        <mxCell id="SmGAMTmKKkEDDtvhA5Ul-68" value="&amp;nbsp; &amp;nbsp; &amp;nbsp; Image" style="text;strokeColor=none;fillColor=none;align=left;verticalAlign=top;spacingLeft=4;spacingRight=4;overflow=hidden;rotatable=0;points=[[0,0.5],[1,0.5]];portConstraint=eastwest;whiteSpace=wrap;html=1;" vertex="1" parent="SmGAMTmKKkEDDtvhA5Ul-63">
          <mxGeometry y="130" width="140" height="26" as="geometry" />
        </mxCell>
        <mxCell id="SmGAMTmKKkEDDtvhA5Ul-69" value="FK IdRoom" style="text;strokeColor=none;fillColor=none;align=left;verticalAlign=top;spacingLeft=4;spacingRight=4;overflow=hidden;rotatable=0;points=[[0,0.5],[1,0.5]];portConstraint=eastwest;whiteSpace=wrap;html=1;" vertex="1" parent="SmGAMTmKKkEDDtvhA5Ul-63">
          <mxGeometry y="156" width="140" height="26" as="geometry" />
        </mxCell>
        <mxCell id="SmGAMTmKKkEDDtvhA5Ul-70" value="PlayerItem" style="swimlane;fontStyle=0;childLayout=stackLayout;horizontal=1;startSize=26;fillColor=none;horizontalStack=0;resizeParent=1;resizeParentMax=0;resizeLast=0;collapsible=1;marginBottom=0;whiteSpace=wrap;html=1;" vertex="1" parent="1">
          <mxGeometry x="510" y="890" width="140" height="130" as="geometry" />
        </mxCell>
        <mxCell id="SmGAMTmKKkEDDtvhA5Ul-78" value="&amp;nbsp; &amp;nbsp; &amp;nbsp; BaseStat" style="text;strokeColor=none;fillColor=none;align=left;verticalAlign=top;spacingLeft=4;spacingRight=4;overflow=hidden;rotatable=0;points=[[0,0.5],[1,0.5]];portConstraint=eastwest;whiteSpace=wrap;html=1;" vertex="1" parent="SmGAMTmKKkEDDtvhA5Ul-70">
          <mxGeometry y="26" width="140" height="26" as="geometry" />
        </mxCell>
        <mxCell id="SmGAMTmKKkEDDtvhA5Ul-79" value="&amp;nbsp; &amp;nbsp; &amp;nbsp; BasePrice" style="text;strokeColor=none;fillColor=none;align=left;verticalAlign=top;spacingLeft=4;spacingRight=4;overflow=hidden;rotatable=0;points=[[0,0.5],[1,0.5]];portConstraint=eastwest;whiteSpace=wrap;html=1;" vertex="1" parent="SmGAMTmKKkEDDtvhA5Ul-70">
          <mxGeometry y="52" width="140" height="26" as="geometry" />
        </mxCell>
        <mxCell id="SmGAMTmKKkEDDtvhA5Ul-81" value="&amp;nbsp; &amp;nbsp; &amp;nbsp; SpecEffectStat" style="text;strokeColor=none;fillColor=none;align=left;verticalAlign=top;spacingLeft=4;spacingRight=4;overflow=hidden;rotatable=0;points=[[0,0.5],[1,0.5]];portConstraint=eastwest;whiteSpace=wrap;html=1;" vertex="1" parent="SmGAMTmKKkEDDtvhA5Ul-70">
          <mxGeometry y="78" width="140" height="26" as="geometry" />
        </mxCell>
        <mxCell id="SmGAMTmKKkEDDtvhA5Ul-80" value="&amp;nbsp; &amp;nbsp; &amp;nbsp; SpecEffect" style="text;strokeColor=none;fillColor=none;align=left;verticalAlign=top;spacingLeft=4;spacingRight=4;overflow=hidden;rotatable=0;points=[[0,0.5],[1,0.5]];portConstraint=eastwest;whiteSpace=wrap;html=1;" vertex="1" parent="SmGAMTmKKkEDDtvhA5Ul-70">
          <mxGeometry y="104" width="140" height="26" as="geometry" />
        </mxCell>
        <mxCell id="SmGAMTmKKkEDDtvhA5Ul-82" value="Hall" style="swimlane;fontStyle=0;childLayout=stackLayout;horizontal=1;startSize=26;fillColor=none;horizontalStack=0;resizeParent=1;resizeParentMax=0;resizeLast=0;collapsible=1;marginBottom=0;whiteSpace=wrap;html=1;" vertex="1" parent="1">
          <mxGeometry x="10" y="410" width="140" height="156" as="geometry" />
        </mxCell>
        <mxCell id="SmGAMTmKKkEDDtvhA5Ul-83" value="PK IdRoom" style="text;strokeColor=none;fillColor=none;align=left;verticalAlign=top;spacingLeft=4;spacingRight=4;overflow=hidden;rotatable=0;points=[[0,0.5],[1,0.5]];portConstraint=eastwest;whiteSpace=wrap;html=1;" vertex="1" parent="SmGAMTmKKkEDDtvhA5Ul-82">
          <mxGeometry y="26" width="140" height="26" as="geometry" />
        </mxCell>
        <mxCell id="SmGAMTmKKkEDDtvhA5Ul-84" value="&amp;nbsp; &amp;nbsp; &amp;nbsp; Type" style="text;strokeColor=none;fillColor=none;align=left;verticalAlign=top;spacingLeft=4;spacingRight=4;overflow=hidden;rotatable=0;points=[[0,0.5],[1,0.5]];portConstraint=eastwest;whiteSpace=wrap;html=1;" vertex="1" parent="SmGAMTmKKkEDDtvhA5Ul-82">
          <mxGeometry y="52" width="140" height="26" as="geometry" />
        </mxCell>
        <mxCell id="SmGAMTmKKkEDDtvhA5Ul-85" value="&amp;nbsp; &amp;nbsp; &amp;nbsp; Image" style="text;strokeColor=none;fillColor=none;align=left;verticalAlign=top;spacingLeft=4;spacingRight=4;overflow=hidden;rotatable=0;points=[[0,0.5],[1,0.5]];portConstraint=eastwest;whiteSpace=wrap;html=1;" vertex="1" parent="SmGAMTmKKkEDDtvhA5Ul-82">
          <mxGeometry y="78" width="140" height="26" as="geometry" />
        </mxCell>
        <mxCell id="SmGAMTmKKkEDDtvhA5Ul-86" value="&amp;nbsp; &amp;nbsp; &amp;nbsp; Description" style="text;strokeColor=none;fillColor=none;align=left;verticalAlign=top;spacingLeft=4;spacingRight=4;overflow=hidden;rotatable=0;points=[[0,0.5],[1,0.5]];portConstraint=eastwest;whiteSpace=wrap;html=1;" vertex="1" parent="SmGAMTmKKkEDDtvhA5Ul-82">
          <mxGeometry y="104" width="140" height="26" as="geometry" />
        </mxCell>
        <mxCell id="SmGAMTmKKkEDDtvhA5Ul-87" value="FK IdDungeon" style="text;strokeColor=none;fillColor=none;align=left;verticalAlign=top;spacingLeft=4;spacingRight=4;overflow=hidden;rotatable=0;points=[[0,0.5],[1,0.5]];portConstraint=eastwest;whiteSpace=wrap;html=1;" vertex="1" parent="SmGAMTmKKkEDDtvhA5Ul-82">
          <mxGeometry y="130" width="140" height="26" as="geometry" />
        </mxCell>
      </root>
    </mxGraphModel>
  </diagram>
</mxfile>
